<?xml version="1.0" encoding="UTF-8" standalone="no"?>
<svg xmlns="http://www.w3.org/2000/svg" width="2000" height="1650" version="1.0">
  <path fill="#fed0d0" d="M846.62556 1644.207c-2.22758-1.4157-6.1307-11.8841-14.73749-39.5268-4.71592-15.1462-8.9211-27.917-9.34482-28.3794-.42374-.4625-1.07383.5405-1.44466 2.2289-1.05346 4.7963-4.01616 3.9863-11.42427-3.1232-33.45345-32.1053-74.63046-99.3577-100.83474-164.6883-34.64872-86.3837-72.79363-153.6868-131.37828-231.8041-11.86993-15.8275-18.27241-23.4687-55.61212-66.3713C416.06872 991.00307 365.207 927.23113 317.22055 855.9733c-35.78326-53.13661-55.41057-90.07464-73.48055-138.2882-23.5363-62.79862-35.55807-125.26475-35.6322-185.14787-.07463-60.28823 11.24196-110.47616 36.06847-159.95991 12.46606-24.84712 25.92893-43.30376 45.59383-62.50589 19.52449-19.06506 35.6498-30.59837 58.78324-42.04356 35.41853-17.52321 69.67664-24.97852 114.41613-24.89943 59.10371.10448 124.07582 17.84786 192.67477 52.61798 48.97626 24.82414 84.47929 49.1916 116.6671 80.07433 39.42864 37.82996 68.95192 78.43022 92.99224 127.88238 4.34663 8.94125 8.26306 15.84148 8.71493 15.35454.45136-.4864 5.28109-11.58302 10.73274-24.65915 34.09982-81.79065 61.73268-130.05351 96.53584-168.60709 29.31701-32.47615 66.59461-61.18376 113.25191-87.21561 4.9322-2.75181 13.1791-7.98451 18.3264-11.62824 82.0632-58.09054 181.9643-73.52482 316.9452-48.96661 127.5308 23.20277 203.7284 78.95553 224.6752 164.39173 1.6651 6.79194 3.9402 16.1381 5.0555 20.76922 1.1153 4.63113 3.8009 14.32524 5.9679 21.54246 4.5809 15.25676 9.0661 36.74221 11.633 55.72558 2.8335 20.95566 2.5668 72.35434-.5036 97.03676-11.862 95.35843-36.7089 176.23234-81.9355 266.69081-44.6387 89.2828-120.7457 197.69367-203.9433 290.50747-43.1404 48.1268-117.6212 123.0204-175.4628 176.4354-23.5826 21.7777-68.2293 61.8418-82.7315 74.2398-2.5604 2.1888-12.1754 10.464-21.3668 18.3892-17.0679 14.7166-48.4396 41.2139-61.7846 52.1847-22.4209 18.4321-32.6956 26.7976-46.559 37.9074-8.44501 6.7677-19.58944 15.7061-24.76541 19.8632-11.35795 9.122-53.10269 40.4636-66.86656 50.2029-13.15098 9.3055-26.52262 17.3659-38.07229 22.9497-8.09472 3.9134-10.32402 4.5683-15.55066 4.5683-4.60971 0-6.61108-.4613-8.18654-1.8871-2.59359-2.3472-2.60849-3.1036.34581 17.5675 1.33706 9.3554 2.89575 22.1364 3.46376 28.402 1.26165 13.9173 1.3163 38.723.0969 43.9797-1.14066 4.9172-3.64484 6.6974-6.69455 4.7593zm-562.56028-27.339c-.32098-.8365.17635-6.9966 1.10516-13.6893 2.18108-15.716 2.20633-37.848.05795-50.8001-4.32549-26.0774-17.97912-53.6535-36.31536-73.3458-35.13714-37.7356-52.51659-57.0093-56.93766-63.1437-31.52622-43.7433-35.51797-101.4925-9.72134-140.6397 5.97019-9.06 20.51886-23.614 29.6985-29.7095 31.50223-20.9181 73.27229-24.375 109.01138-9.0216 21.26873 9.1369 40.36293 26.6123 48.50166 44.3896 1.42521 3.1131 2.91038 5.2871 3.30034 4.8311.38997-.456 3.33531-4.841 6.5452-9.7446 15.17934-23.1885 36.52497-39.0913 61.37793-45.7274 8.83984-2.3604 11.69767-2.6468 26.7382-2.6804 15.12552-.0339 17.94957.2389 27.73167 2.6784 35.01455 8.7321 67.52083 37.5427 77.65935 68.8301 6.17172 19.0458 5.66159 44.911-1.37288 69.6095-13.31824 46.7611-51.93945 96.126-113.29601 144.8132-40.19769 31.8973-89.32911 62.8556-144.26758 90.9047-27.6027 14.0927-28.96607 14.6617-29.81651 12.4455zm1106.59742-109.5948c-.3743-.6057-.3805-3.1031-.0136-5.5498 1.2217-8.1465.7016-24.6666-.981-31.1598-3.7654-14.5311-9.0823-22.6756-28.3007-43.3508-14.4429-15.5377-17.7553-19.9361-22.3711-29.7063-17.8594-37.8022 4.1652-77.9421 43.9832-80.1599 14.9468-.8325 26.146 2.3263 37.2008 10.4931 5.2391 3.8703 10.1179 9.2527 12.4936 13.783.6428 1.2259 1.4874 2.2281 1.877 2.2271.3894-.001 1.9639-1.9896 3.4988-4.4192 6.2629-9.9134 19.4387-18.9576 31.1637-21.3918 8.1015-1.6819 23.1339-.709 30.0847 1.9472 12.0289 4.5966 24.6286 15.0354 29.951 24.8144 5.236 9.6203 6.6883 21.7634 4.171 34.8738-7.6428 39.8039-48.6835 79.9621-121.2295 118.6231-18.013 9.5995-20.5013 10.6369-21.5279 8.9759zm341.911-226.6107c-.2653-.4292.151-4.9985.9251-10.1538 1.846-12.2946 1.8282-36.9952-.0344-47.6758-2.765-15.8562-8.0982-30.1045-16.4387-43.9188-6.0728-10.0585-16.682-22.474-49.5603-57.999-14.589-15.7635-19.6506-22.6598-26.1395-35.6142-10.2794-20.5219-13.9714-37.0213-13.156-58.7929.9844-26.2866 9.1208-45.31708 27.0772-63.33177 13.7053-13.74974 28.4225-21.63014 47.9734-25.68744 13.9554-2.89608 37.4518-2.14104 50.0261 1.60755 25.7564 7.67838 45.3688 22.82603 54.5303 42.11651 1.5716 3.30937 3.103 6.01704 3.403 6.01704.3 0 1.9495-2.34733 3.6655-5.21629 4.533-7.57866 14.2806-19.3553 20.3284-24.55978 10.6305-9.14823 19.0231-13.88897 32.489-18.35209 8.071-2.67508 9.2212-2.79129 27.7372-2.80247 18.1056-.01091 19.8451.15228 27.7372 2.60227 35.6499 11.0669 62.0657 37.41891 66.8648 66.70347 3.0872 18.838 1.1615 45.4985-4.5178 62.5455-5.96 17.8901-18.9658 40.584-34.2407 59.7468-8.6724 10.8799-34.3663 36.6092-48.8522 48.9198-37.4512 31.8269-86.4455 63.4827-144.8283 93.5751-20.5979 10.6168-23.9291 11.9858-24.9893 10.2703zm-1657.474547-87.456c-.361046-.5842-.105287-5.5616.568355-11.0607 2.008689-16.3975-.104422-31.063-6.485497-45.0107-4.738643-10.3576-7.884716-14.4964-26.432379-34.7734-23.722734-25.9343-28.392415-33.3732-31.022497-49.4194-2.8579671-17.4365-1.113289-37.2316 4.15835-47.1806 4.264477-8.04813 16.255381-19.3711 25.081636-23.68449 10.668583-5.21374 18.444615-6.96685 30.709091-6.92336 7.814843.02771 12.125881.57275 17.335777 2.19174 15.425411 4.79349 27.702181 13.72848 33.989781 24.73771l2.82145 4.9401 4.79315-7.015c7.94143-11.6227 20.92316-20.64008 34.12627-23.70487 7.48528-1.73753 23.07389-1.52211 30.6696.42382 19.88816 5.09511 39.47358 23.67825 44.10723 41.84985 6.89126 27.0255-7.38032 62.001-37.53368 91.9844-29.53921 29.3726-61.25312 51.3329-109.974449 76.1517-8.157453 4.1554-15.152135 7.5553-15.543736 7.5553-.391602 0-1.007405-.478-1.368452-1.0621zM706.11215 183.0975c.03266-17.34413-.00892-17.69274-3.05551-25.61494-5.08776-13.22996-10.32321-20.18634-35.05646-46.57972-8.32578-8.88462-15.62038-21.847172-18.30236-32.523436-1.87138-7.449406-1.89366-22.183783-.04407-29.132959 3.49406-13.127694 13.58822-26.034125 25.21041-32.234122 13.00086-6.935468 40.41718-7.3063819 53.32475-.721428 6.58948 3.361698 13.99031 9.855395 17.83979 15.653117l3.68378 5.548175 2.00136-2.835823c4.00419-5.673698 13.80573-15.311476 18.17678-17.873082 7.89753-4.628263 26.03813-6.589671 39.23944-4.24267 9.05333 1.609548 19.22052 6.985108 25.69342 13.584518 11.60677 11.833654 14.76015 19.301519 14.72796 34.878971-.04185 20.24567-8.07937 38.53531-26.55534 60.427559-8.17835 9.69056-28.63658 27.64484-44.10771 38.70924-20.76013 14.8469-65.48186 40.4431-70.78482 40.51324-1.96517.02601-2.02358-.48885-1.99142-17.55664z"/>
  <path fill="#fe8f8f" d="M846.10669 1640.2934c-2.42748-4.5198-4.4817-10.5671-17.16918-50.5438-3.19466-10.0661-6.20722-17.947-6.78654-17.7539-.57297.191-1.40955 2.2071-1.85907 4.4801-.50536 2.5554-1.36111 4.133-2.24197 4.133-2.1368 0-15.19589-12.8047-24.45384-23.9775-21.70664-26.1962-45.15175-63.7704-65.0844-104.3073-9.08729-18.4807-10.65922-22.0739-23.40222-53.4932-22.8995-56.4615-50.20622-108.1096-85.30102-161.339-31.54777-47.8495-51.06607-73.5893-87.9314-115.9598-45.24714-52.0039-89.0599-103.236-103.08383-120.5402-23.71665-29.26417-52.08757-65.07507-61.52287-77.65663-31.92676-42.57295-61.40944-85.95368-80.13058-117.90392-57.07186-97.40113-86.35772-220.60475-75.2285-316.48112 5.27676-45.45836 18.95893-89.69213 38.76114-125.3129 31.87566-57.3388 87.39398-98.57128 151.95182-112.85194 37.94161-8.39297 83.24013-7.90943 127.83539 1.36457 67.02691 13.93888 147.72661 51.15648 205.52151 94.78373 53.94334 40.71985 99.65147 97.55143 129.67949 161.23805 3.74966 7.95269 7.33247 14.45943 7.96179 14.45943.62932 0 3.95651-6.7981 7.39375-15.10689 18.42829-44.54639 38.23188-86.66805 52.51221-111.69193 32.29179-56.58593 71.08373-97.82079 126.28723-134.24018 7.6277-5.03226 19.8866-12.61089 27.2419-16.84142 7.3553-4.23052 18.9455-11.59491 25.756-16.36531 46.8952-32.84767 92.7003-50.23397 153.0501-58.09331 17.4571-2.27343 77.877-2.58035 97.5757-.49567 55.0546 5.82636 94.3351 13.37871 130.6421 25.11824 89.2803 28.86787 141.0654 76.83677 159.5436 147.78631 1.5801 6.06659 3.1661 13.25905 3.5245 15.98324.3585 2.7242 2.828 12.63023 5.4878 22.01341 10.8076 38.12671 13.8309 58.5833 14.5341 98.34642.407 23.01097.1675 32.69778-1.127 45.56832-12.4176 123.4657-53.1391 238.18801-126.4097 356.12639-18.2743 29.41476-42.6236 65.55899-59.7275 88.66012-37.2806 50.35189-59.2581 77.54079-99.0405 122.52519-55.949 63.2648-164.8001 169.7496-242.8429 237.5637-5.016 4.3587-14.4332 12.6102-20.927 18.3369-62.3977 55.0259-163.02232 136.1962-213.91828 172.5602-23.80245 17.0063-45.2158 28.542-54.39456 29.3031-9.50261.788-12.04118-2.5205-13.06055-17.0224-.36777-5.2318-1.05821-9.5124-1.53431-9.5124-.47609 0-1.38363 1.1369-2.01674 2.5263-.94081 2.065-.58117 5.5488 1.96854 19.0694 5.91467 31.3644 8.1385 52.0704 8.13975 75.7889.00078 14.4683-1.19668 24.4611-2.93118 24.4611-.39356 0-1.85282-2.1174-3.24278-4.7054zm-561.44807-25.8685c0-1.0153.41006-4.0242.91127-6.6866.50119-2.6624 1.42001-10.9457 2.04184-18.4076 2.44078-29.289-3.37289-56.9864-17.32153-82.5228-8.29499-15.186-9.42048-16.526-57.77712-68.783-17.46012-18.8685-24.10097-27.8078-31.55253-42.4732-9.92741-19.5381-14.42741-38.4518-14.42179-60.6157.00377-14.8944 1.08643-22.4759 4.88035-34.1762 6.22467-19.1965 16.57004-34.5339 31.87816-47.2605 21.30547-17.7125 42.34508-24.9638 72.44581-24.9683 13.29586-.002 16.74913.3475 25.75601 2.6061 31.6196 7.9291 56.87754 27.2785 67.43729 51.6618 1.32062 3.0495 2.67752 5.552 3.01534 5.5613.33782.0093 3.08709-3.8838 6.10948-8.6515 16.08106-25.3669 37.09201-41.6257 62.61941-48.4565 8.97476-2.4016 11.53611-2.6489 27.24194-2.6297 15.39445.0186 18.39781.3036 26.8197 2.5446 19.46848 5.1802 34.55977 13.552 49.89139 27.6768 14.85556 13.6862 24.22819 28.9448 28.90907 47.0635 2.33838 9.0515 2.47557 10.8564 2.01826 26.5521-.53849 18.4821-1.79049 25.8318-7.20718 42.3081-22.16462 67.4198-95.92496 138.8567-212.86614 206.1608-22.40808 12.8968-66.16385 35.3425-68.89654 35.3425-1.2249 0-1.93249-.6759-1.93249-1.846zm1107.12828-113.8084c1.2196-9.2271.7559-23.0472-1.0054-29.9661-3.7713-14.8141-10.2437-24.5492-31.2839-47.0542-16.2974-17.4321-21.2508-25.813-24.378-41.2471-4.0193-19.836 1.3992-37.8312 15.1853-50.431 16.3529-14.9455 40.8264-18.1785 61.4587-8.1187 6.7306 3.2817 16.2177 11.8294 19.6725 17.7244 1.3888 2.37 2.8273 4.309 3.1964 4.309.3692 0 1.4919-1.5239 2.4949-3.3865 2.3151-4.2988 10.4479-12.6315 16.1726-16.5703 6.7135-4.619 14.5149-7.0335 24.442-7.5647 16.5744-.8868 29.8258 4.1996 41.615 15.9732 11.0571 11.0425 15.3354 22.3948 14.086 37.3767-.8967 10.7534-2.9772 17.8811-8.5087 29.1508-11.6182 23.6709-35.2444 47.4207-71.349 71.7225-20.9955 14.1319-56.4391 33.7781-60.9391 33.7781-1.3896 0-1.5083-.7866-.8593-5.6961zm341.8223-220.9073c-.2407-.4086.2175-4.7549 1.0179-9.6585 1.0662-6.5312 1.33-13.949.9865-27.7372-.5078-20.3724-2.4574-31.1192-8.1766-45.0713-8.6485-21.0982-9.593-22.3161-63.3184-81.658-17.6845-19.5334-26.799-35.9334-32.3405-58.1917-1.9761-7.9371-2.296-11.6838-2.2697-26.5755.0354-19.9512 1.4763-27.0928 8.3807-41.53493 5.3859-11.26586 11.1567-19.10167 20.5374-27.88601 18.1362-16.98341 38.7541-24.64726 66.3817-24.67456 28.1228-.02779 50.6873 8.73869 68.6366 26.66587 6.8152 6.80669 9.349 10.20489 12.7923 17.15587 2.3616 4.76734 4.5553 8.65915 4.8749 8.64848.3195-.01068 3.0098-3.91123 5.9783-8.66789 7.2194-11.56821 21.7539-26.14129 32.1059-32.19144 4.2815-2.50234 12.3055-6.02996 17.8311-7.83916 9.9104-3.24494 10.2943-3.28944 28.3727-3.28944 17.211 0 18.8919.16913 27.6181 2.77878 24.565 7.34642 45.711 23.32522 58.1038 43.90539 6.9355 11.51761 10.3641 25.30854 10.3664 41.69824.0093 62.026-45.0671 122.6942-140.1707 188.6553-11.1536 7.7358-32.9769 21.3447-51.0167 31.8136-13.7821 7.9982-64.1727 34.3971-65.6575 34.3971-.3283 0-.7937-.3344-1.0342-.743zM76.332447 1186.096c1.197529-9.3597.874179-27.2996-.602605-33.4333-3.95396-16.4225-9.8152-26.2692-26.747058-44.9343-26.2373-28.9231-27.90685-31.0881-33.13035-42.9613-5.670221-12.8886-7.0332729-33.786-3.146299-48.2368 4.689289-17.43363 22.914828-34.12066 42.24258-38.67669 8.285511-1.9531 24.568785-1.94791 32.121569.01024 14.486676 3.75584 29.267146 14.18434 35.330276 24.92765 1.62692 2.8828 3.24982 5.2357 3.60644 5.2287.35662-.0069 2.20861-2.5053 4.11555-5.5521 7.35931-11.75796 20.13681-21.20865 33.31546-24.64125 6.75272-1.75886 22.78393-1.96608 30.28285-.39142 20.5064 4.30602 38.98283 21.57754 44.91599 41.98687 2.49653 8.5878 1.57939 24.8726-2.03646 36.1601-10.64107 33.2177-43.13796 68.1063-94.59045 101.5522-20.36213 13.236-60.83808 35.1528-64.920386 35.1528-1.324511 0-1.434344-.8982-.757107-6.1914zM707.38419 186.39867c.62762-14.96915-.33168-21.74071-4.54751-32.10023-3.79724-9.33088-8.29451-15.70181-20.64399-29.24465-18.31759-20.08766-21.85387-24.44143-25.52208-31.422048-9.26189-17.625415-9.93514-38.986396-1.74363-55.322263 3.41725-6.814829 13.53759-16.821855 21.07547-20.83951 16.48491-8.7863589 41.79344-7.4814699 56.93394 2.935473 5.65733 3.892344 10.88009 9.488877 13.54756 14.517106 1.25113 2.358403 2.53578 4.288005 2.85479 4.288005.319 0 2.28216-2.471465 4.36258-5.492144 12.17692-17.680345 30.33697-24.9377019 52.9307-21.152862 20.61255 3.45296 38.60248 20.884386 41.75481 40.45853 2.1607 13.416784-2.36885 32.101299-11.51978 47.519373-18.37824 30.96482-56.82534 62.14626-113.52504 92.07131-7.37342 3.89156-14.10572 7.07555-14.96067 7.07555-1.36264 0-1.48567-1.64008-.99715-13.29164z"/>
  <path fill="#fe7373" d="M285.946 1611.0702c.31568-2.8604 1.10346-9.8814 1.75063-15.6022 1.41727-12.5283.64259-36.9689-1.50518-47.4873-2.30648-11.2956-6.09833-22.2633-11.83729-34.2385-9.42524-19.6672-11.528-22.2678-62.55142-77.3618-16.02765-17.3064-23.51196-27.5312-30.64891-41.8717-15.12985-30.4007-18.46028-65.9298-8.88071-94.7395 12.04299-36.2181 43.47419-62.584 82.76655-69.4281 13.43083-2.3395 35.53368-1.4622 48.69834 1.9328 10.93497 2.8201 25.17541 9.2284 34.53532 15.5412 12.96479 8.7442 25.40605 23.3915 30.68335 36.1238 1.23754 2.9859 2.60356 5.4288 3.03558 5.4288.43202 0 1.54332-1.2259 2.46955-2.7242 15.81383-25.581 28.35742-38.0225 48.18182-47.7892 15.92949-7.8477 23.36768-9.3846 45.27892-9.355 15.72417.0212 19.522.3383 26.74662 2.2331 15.50819 4.0674 29.23503 10.7572 40.42095 19.6994 34.87722 27.8814 46.40002 59.3908 37.84941 103.5002-14.41866 74.3805-90.49759 152.8591-219.43311 226.3545-17.84398 10.1713-65.66721 34.9844-67.42683 34.9844-.38915 0-.44926-2.3403-.13359-5.2007zm519.74448-42.1012c-31.51821-32.0587-70.54741-97.0202-95.07791-158.2508-23.43337-58.4921-47.07527-105.3337-78.4421-155.417-20.93011-33.4189-52.24386-77.66-72.64542-102.6358-115.42607-141.3056-148.20489-183.84846-189.67196-246.1707-53.40624-80.26598-100.92191-170.26891-119.83993-226.99759-8.45949-25.36712-15.27234-56.91598-17.90527-82.9155-1.3811-13.6379-.69505-60.68706.99886-68.50215.59047-2.72419 1.50998-12.53129 2.04335-21.79355 2.75856-47.90363 12.20365-85.65837 31.20473-124.73432 10.74575-22.09875 22.8654-38.95108 40.57402-56.41804 34.576-34.10416 75.00414-53.04263 127.26771-59.61828 17.65976-2.2219 52.7903-1.54486 72.36 1.39454 63.65516 9.56109 135.88609 38.19878 196.99156 78.10202 38.25678 24.98254 72.10307 56.14967 99.83347 91.93097 22.90467 29.55454 43.52399 65.11614 59.27369 102.22778 5.1894 12.22797 6.81336 14.28517 11.4556 14.51173l3.13817.15316 8.84962-21.79355c40.93136-100.79972 66.125-148.68454 98.76602-187.7217 13.30623-15.91362 34.22791-36.1136 52.16671-50.3672 6.5381-5.19495 20.4277-17.77893 30.8659-27.96439 10.4382-10.18547 22.0284-20.6564 25.756-23.26873 3.7276-2.61232 12.5726-8.86952 19.6555-13.90488 81.9615-58.26779 181.1973-73.82203 315.2384-49.4105 98.8734 18.0068 165.4568 54.22206 201.2126 109.44122 11.3675 17.55528 21.8373 43.52585 25.3592 62.9041.8912 4.90355 2.5483 13.36858 3.6824 18.81117 1.5664 7.51675 2.244 15.73263 2.8185 34.17625.4161 13.35434 1.029 24.94928 1.3621 25.76654 1.3655 3.35046 3.7052 29.4714 4.2592 47.54956 2.1988 71.76658-20.6295 177.5131-57.1193 264.59022-18.3851 43.87309-46.1318 98.32594-69.1051 135.61857-37.4853 60.85003-87.0967 127.88895-140.3585 189.66335-72.8197 84.4583-183.3369 192.9254-291.312 285.9078-79.3075 68.2955-135.77259 112.1464-160.88625 124.9445-10.49357 5.3477-16.01364 6.1899-18.14981 2.7694-1.8167-2.909-2.9929-2.477-6.68985 2.4571-5.47395 7.3057-13.33829 11.3928-21.94731 11.406-1.98351.003-8.0015-1.1661-13.37332-2.5981-5.37183-1.4321-12.79718-3.1521-16.50078-3.8223-4.98014-.9014-7.48786-1.9411-9.62924-3.9927-2.13766-2.048-3.0059-2.4088-3.31762-1.3784-7.18756 23.7573-10.97482 33.3028-15.76538 39.7352-1.33788 1.7964-2.72667 4.509-3.0862 6.028-.35953 1.5191-2.5355 6.2017-4.83549 10.4061-7.43954 13.5993-15.57389 33.1485-15.57389 37.4284 0 4.4973-3.28974 2.5454-13.90068-8.2475zm587.13392-74.8115c.7247-14.2973-.4533-22.5654-4.7713-33.4927-3.715-9.4011-10.546-18.5775-26.9717-36.2325-16.4786-17.7119-21.7822-26.0828-24.8987-39.2988-1.9323-8.1945-1.8786-22.695.1092-29.4624 3.7524-12.7755 13.9655-25.4607 25.0009-31.0528 11.5745-5.8652 28.3029-7.5599 40.335-4.0861 12.9772 3.7466 25.544 13.1816 29.6321 22.2478 1.0029 2.2239 2.3129 4.0293 2.9113 4.012.5982-.0172 3.0736-2.9766 5.5007-6.5763 10.5092-15.5861 27.8386-23.2982 47.5023-21.1396 17.5604 1.9276 34.6835 13.933 41.9159 29.3882 4.2739 9.1332 4.998 22.6778 1.8744 35.06-8.6196 34.1692-44.7832 70.803-103.0326 104.3725-11.9899 6.9098-34.0026 18.4158-35.2324 18.4158-.2701 0-.214-5.4698.1249-12.1551zm341.5047-217.9154c3.2347-16.0921 3.1013-44.4608-.2782-59.1893-5.0473-21.9966-15.1054-41.7447-29.1846-57.3004-3.357-3.7091-15.9106-17.5719-27.8971-30.8062-11.9864-13.2344-23.6546-26.7166-25.9293-29.9606-22.8812-32.6319-28.1368-76.1856-13.108-108.62885 4.9422-10.66875 10.788-18.75212 19.8599-27.46125 12.5571-12.0551 23.7746-18.30894 40.9794-22.84644 8.7044-2.29566 11.8086-2.61157 25.7476-2.62036 13.9787-.00881 17.0192.29828 25.756 2.6014 5.7021 1.50316 14.69 4.96816 21.1787 8.16472 10.0862 4.96888 12.2866 6.55928 20.9086 15.11223 8.1568 8.09151 10.2791 10.88953 13.8253 18.2268 2.3042 4.76734 4.5544 8.66789 5.0005 8.66789.4462 0 2.1361-2.34033 3.7555-5.20073 9.7175-17.16523 25.2699-31.94532 41.9105-39.82951 12.9482-6.13473 21.1025-7.7948 38.5461-7.84724 13.7639-.04138 16.3807.23563 25.2607 2.67393 25.8393 7.09511 47.5072 23.16719 60.0881 44.57031 15.5736 26.4943 14.1068 62.147-4.1324 100.4525-25.7378 54.0535-87.1495 109.276-181.8507 163.5234-16.7039 9.5685-57.9999 30.9172-59.805 30.9172-.915 0-1.0947-.9157-.6316-3.2195zm-1657.21227-91.632c2.292375-24.4328-1.52006-42.5043-12.515539-59.3252-1.8296-2.7989-10.844574-13.2747-20.033275-23.2795-22.027209-23.9835-27.138254-31.5815-31.335142-46.5829-8.5427984-30.5352 2.945868-59.13943 28.921084-72.00691 16.956925-8.40006 34.983548-9.29442 51.889637-2.57443 13.266975 5.27348 23.849005 14.03781 28.221895 23.37414 1.23862 2.6444 2.73305 4.8043 3.32097 4.7995.58791-.0048 2.73814-2.5998 4.77829-5.7668 13.49906-20.9552 36.14024-30.37272 61.33649-25.51279 12.69768 2.44917 23.7893 8.61908 32.76164 18.22426 16.01963 17.14943 19.24083 36.65523 10.34434 62.63933-5.80336 16.95-16.10185 32.5512-32.54381 49.3005-23.07103 23.5022-50.35994 43.8695-85.51417 63.824-14.06292 7.9825-38.368086 20.5641-39.725794 20.5641-.344809 0-.302786-3.4548.093384-7.6773zM708.01676 184.08811c.14634-16.43276-.77772-21.53092-5.95901-32.87654-4.29552-9.40604-7.82911-14.02912-25.06606-32.79463-19.37857-21.097029-24.4017-30.020915-26.81351-47.635781-2.61296-19.084037 4.49524-36.953051 19.07489-47.951548 7.35237-5.546437 12.82121-8.068386 21.55804-9.941455 8.85365-1.898119 15.18943-1.756056 24.17497.54206 14.32159 3.662845 25.8264 11.792123 31.30556 22.120455 1.3569 2.557774 2.77836 4.650497 3.1588 4.650497.38044 0 2.31047-2.438772 4.28896-5.419494 8.34057-12.565598 20.56586-20.432104 35.0296-22.540217 15.37372-2.240741 32.42156 3.208518 43.98427 14.059358 11.56388 10.851945 16.21497 22.289927 15.32005 37.675133-1.26083 21.675555-12.16442 42.126652-34.39299 64.508482-23.50623 23.66829-55.11284 45.70033-92.31061 64.34701-6.43855 3.22754-12.1062 5.86826-12.59477 5.86826-.48976 0-.82993-6.55591-.75819-14.61159z"/>
  <path fill="#fe5151" d="M285.99262 1612.0608c3.45006-19.6982 3.99265-45.0599 1.28749-60.1799-2.49199-13.9284-7.20004-27.7437-14.00997-41.1105-7.55895-14.8371-13.10799-22.7228-24.62975-35.0012-57.72494-61.5155-65.86094-72.3978-74.84167-100.105-5.1137-15.7766-5.54124-18.9914-5.48241-41.2235.05207-19.677.20026-21.2854 2.73795-29.7184 5.66652-18.8305 14.84843-33.7339 28.82483-46.7862 18.28201-17.0734 37.47814-25.5067 64.22768-28.2167 20.54553-2.0815 40.53523 1.4583 59.68117 10.5684 13.01971 6.195 20.52711 11.7014 30.70592 22.5215 5.99665 6.3745 8.56104 10.1094 12.21672 17.7933 2.54481 5.3488 4.91511 9.7321 5.26735 9.7405.35224.0084 2.77439-3.4395 5.38258-7.662 6.62515-10.7257 11.9513-17.4881 19.93292-25.3078 14.35791-14.0666 27.63963-21.1575 49.82618-26.601 8.85851-2.1735 35.17964-1.6438 45.63557.9183 17.86269 4.3771 30.39972 10.6658 45.23602 22.6906 19.30688 15.6484 31.15018 34.2453 35.48387 55.7185 2.40965 11.9397 1.5435 35.22-1.84573 49.6093-6.49033 27.5553-20.6772 54.9972-42.81985 82.8272-11.70582 14.7125-47.11617 49.5904-64.3541 63.3864-34.18208 27.3569-67.85385 50.2433-106.4912 72.3811-26.34579 15.0952-68.60494 36.9766-71.41217 36.9766-.72254 0-.92211-1.1485-.5594-3.2195zm524.43715-38.634c-31.84432-29.9039-76.69363-103.7466-100.32737-165.1852-25.37072-65.954-61.94925-132.9057-111.20674-203.5477-23.01158-33.0016-22.27851-32.0626-120.95489-154.9425-47.95734-59.72037-76.32362-97.91736-107.12259-144.24731-54.64475-82.20046-103.01427-174.61757-120.80377-230.81349-12.40466-39.18555-17.31513-69.75492-17.34472-107.97712-.02029-26.22339 1.53603-39.70712 7.54642-65.38065 9.24556-39.49269 32.14678-81.33154 59.30175-108.33995 41.5005-41.27651 89.52147-64.6592 152.05952-74.04184 13.81351-2.07245 52.25513-2.88805 69.34311-1.47121 41.53594 3.44389 92.54313 17.32132 127.78944 34.7674 35.00024 17.32429 87.15059 51.60463 102.4114 67.31877 7.73656 7.96638 19.49031 22.49537 37.029 45.77212 20.30771 26.9517 24.1046 31.81104 35.86511 45.90087 26.96164 32.30173 45.96595 47.05425 60.61566 47.05425 6.5017 0 9.18553-1.02426 13.90989-5.3086 4.67723-4.2416 6.36754-7.52694 20.96842-40.75503 40.4747-92.11067 73.25046-152.04484 108.52509-198.45035 22.2294-29.24389 52.8815-60.83548 72.8641-75.09746 4.1014-2.92728 11.0233-8.03188 15.3821-11.34358 32.4412-24.64851 83.4894-45.31238 131.7519-53.33219 70.035-11.63776 172.1959-2.25502 249.1398 22.88169 62.7885 20.51232 109.3722 53.82397 135.0585 96.57942 9.4602 15.74679 18.718 39.23932 21.7964 55.31086 5.0178 26.19624 5.0615 26.60596 5.2768 49.53079.2304 24.53258-.6219 37.93821-3.7469 58.94164-10.6687 71.70636-40.5286 155.87358-95.2401 268.45689-59.7122 122.87357-162.5263 252.43283-325.9908 410.79108-20.6146 19.9707-41.1631 39.69-45.6633 43.8207-4.5003 4.1308-17.278 15.9859-28.3949 26.3448-11.117 10.3588-27.1005 25.0695-35.519 32.6903-8.4185 7.6208-20.4545 18.549-26.7466 24.2848-12.3714 11.2775-52.2382 46.9032-61.4938 54.9519-7.9176 6.8852-27.2691 24.0232-39.14625 34.6687-9.45926 8.4782-24.84749 22.146-56.91616 50.5529-7.90016 6.998-29.4082 26.2772-47.79564 42.8424l-33.43173 30.1188-1.54383 5.6063c-5.4708 19.8665-10.22249 31.5365-20.63528 50.6792-11.17146 20.5376-14.29983 28.0558-17.62133 42.3488-.53811 2.3156-1.29726 4.2102-1.687 4.2102s-3.67551-2.7862-7.30171-6.1914zm582.36833-72.8103c1.2811-8.0139.7789-23.1111-.9971-29.9661-2.2169-8.5572-7.259-18.9547-12.7303-26.2513-2.4512-3.269-10.2202-12.1846-17.2644-19.8123-14.1319-15.3026-17.8526-20.2442-21.5684-28.6464-12.4664-28.1888-2.6556-59.3535 22.4333-71.2604 16.0772-7.6301 32.7156-7.6209 48.3177.0268 8.2334 4.0357 17.2886 12.2957 20.1273 18.3597.9455 2.0201 2.1288 3.9259 2.6294 4.2353.5005.3094 2.6605-2.012 4.7999-5.1587 11.0141-16.1997 25.8848-23.7895 44.694-22.8114 31.2393 1.6244 52.7847 26.1604 48.8427 55.6222-4.4613 33.3442-31.8297 65.9797-83.9452 100.1008-17.4908 11.4515-51.6952 30.2673-55.0219 30.2673-.7209 0-.8242-1.5334-.317-4.7055zm342.5712-227.3463c5.4864-40.5134-1.3153-74.2984-20.4241-101.4494-4.193-5.9575-23.2771-27.6645-46.623-53.0305-14.1636-15.3892-18.9434-21.7844-24.7766-33.1505-10.0673-19.6162-14.1634-37.6333-13.3625-58.7767.6013-15.8748 2.7253-24.8798 8.9634-38.00283 11.1102-23.37224 32.1289-40.77828 57.9214-47.96581 8.8571-2.46818 11.0728-2.68148 27.9462-2.69038 21.5183-.01135 26.896 1.17368 45.073 9.93244 17.915 8.63246 29.2806 19.70375 36.8278 35.87387 1.8437 3.95008 3.6895 7.18197 4.1018 7.18197.4123 0 2.3912-2.8543 4.3977-6.3429 9.5832-16.66209 24.0842-30.57851 39.8657-38.25858 15.3668-7.47829 19.7764-8.38758 40.6152-8.37528 15.73.00928 18.7649.28266 25.756 2.32 43.6302 12.71468 71.85 49.13422 69.5495 89.7583-.6062 10.7047-4.8837 30.4726-8.9018 41.1387-10.0979 26.8051-30.1888 55.3212-58.2944 82.7404-41.4692 40.4568-94.5289 76.8554-164.4768 112.8301-12.2636 6.3073-22.8748 11.4678-23.5802 11.4678-.9763 0-1.1144-1.242-.5783-5.2007zM77.041701 1188.0773c1.403276-6.8446 1.774956-22.3181.700882-29.1786-3.272358-20.9018-9.273088-31.3-33.311672-57.7236-18.696743-20.5517-21.325868-23.9099-25.999856-33.21-13.2460318-26.3564-9.3747246-56.2041 9.613013-74.11623 7.63231-7.1999 19.392046-13.55648 28.574012-15.44527 7.552831-1.55368 23.567963-1.33514 30.280265.41319 14.995965 3.90596 28.764765 13.85075 34.874645 25.18901 1.59564 2.961 3.35303 5.5262 3.90531 5.7005.55227.1742 2.52576-2.2484 4.38554-5.3838 7.11222-11.99013 20.32675-22.10662 33.2855-25.48194 6.85712-1.78605 22.84297-1.99938 30.37152-.40531 12.34227 2.61332 26.42775 11.87419 34.71016 22.82115 8.44852 11.1664 11.18749 20.6402 10.40791 35.9996-1.19083 23.4619-14.42508 48.1233-38.80707 72.3149-23.99731 23.81-49.58777 42.7041-84.76855 62.587-14.34268 8.1059-36.105552 19.1389-37.751998 19.1389-.749493 0-.907536-1.0836-.469611-3.2195zM708.387 185.07873c.53744-15.73595-.71489-22.83576-6.04036-34.24465-4.27687-9.16243-9.22226-15.61078-26.04915-33.96571-14.63748-15.96671-19.96457-23.769007-23.2621-34.070721-2.54627-7.95472-3.50704-23.217258-1.93746-30.777884 3.57947-17.242226 16.21249-31.099497 34.00107-37.296079 9.30495-3.241343 23.20393-3.612333 31.46812-.839941 14.02384 4.704593 23.65573 11.729186 28.95315 21.115695 1.61461 2.860916 3.26222 5.403501 3.66137 5.650189.39915.246687 3.04099-2.88182 5.87076-6.95224 10.31002-14.830195 28.47828-23.638168 44.93082-21.78246 24.31832 2.742901 44.02456 20.01606 47.35367 41.507018 1.7998 11.618544-1.43431 27.456843-8.42572 41.263094-14.2824 28.204089-47.54734 58.085429-95.59743 85.873579-10.6009 6.13067-33.61376 18.14108-34.7597 18.14108-.34774 0-.42291-6.12944-.16704-13.62097z"/>
  <path fill="#fe3030" d="M286.92496 1610.1926c.32209-2.9226 1.11669-9.9944 1.76578-15.7152 1.38936-12.245.63553-35.7215-1.48512-46.2511-3.5762-17.7569-12.92222-39.556-23.59222-55.0278-2.86335-4.152-11.89276-14.8015-20.06534-23.6657-8.17258-8.8641-21.0452-22.8201-28.60581-31.0132-20.43638-22.146-24.90937-28.1495-32.81763-44.0467-19.61869-39.4374-18.96735-84.7985 1.6811-117.0773 11.65967-18.227 31.96389-34.2159 52.31272-41.1946 14.65885-5.0274 25.67469-6.5619 43.09179-6.0027 17.76739.5704 29.19933 3.1925 43.54307 9.9872 15.43889 7.3135 25.03622 14.6591 34.49048 26.3981 5.42544 6.7365 12.6078 19.4987 12.6078 22.4025 0 .6382.65123 1.4102 1.44719 1.7156 1.01205.3884 2.9561-1.9427 6.46553-7.7528 15.83395-26.2138 36.94811-43.0706 62.91631-50.2297 6.84225-1.8864 10.49628-2.1917 26.74663-2.2348 16.66751-.0442 19.82683.2154 27.60372 2.2674 17.7954 4.6959 31.30961 11.9539 45.52927 24.4523 17.52278 15.4017 26.94906 30.2811 32.07816 50.6352 2.55414 10.1358 2.29391 34.2564-.51143 47.4044-6.10341 28.6051-20.95777 58.5618-42.24376 85.1929-45.03192 56.3398-122.76248 114.0008-219.86648 163.0981l-23.67738 11.9717.58562-5.3138zm519.84414-41.2271c-23.90904-24.4023-51.03462-65.4635-75.09167-113.6696-9.01391-18.0623-13.77958-28.8143-24.58829-55.4745-26.79828-66.0993-56.73461-121.0594-101.57043-186.4731-15.08307-22.0057-18.2912-27.0046-17.33051-27.0046.80356 0 43.02884 51.0278 58.20085 70.3337 65.65355 83.5422 113.06114 159.5365 146.76939 235.2713 14.17669 31.8517 27.42334 66.715 27.42334 72.174 0 4.6985-2.27281 14.5048-3.36176 14.5048-.54128 0-5.2442-4.3479-10.45092-9.662zm30.76514-50.5179c-.70819-3.1328-1.52086-6.699-1.80591-7.9249-.4367-1.878-.10797-2.2289 2.0883-2.2289 2.93404 0 6.52982 4.7877 6.53622 8.7028.00441 2.6945-2.71397 7.1471-4.3635 7.1471-.64212 0-1.74692-2.5632-2.45511-5.6961zm556.29496-25.2894c.7108-13.262-.5575-21.8764-4.7722-32.4139-3.8537-9.635-10.2141-18.2681-26.4151-35.8533-17.8435-19.368-22.2723-26.3022-25.5019-39.9289-1.7767-7.4967-1.8227-22.2488-.0893-28.7278 6.5646-24.5386 30.5429-39.5871 57.6099-36.1553 14.5555 1.8454 28.8112 10.9274 35.3715 22.5343 1.6166 2.8604 3.5024 5.2008 4.1906 5.2008.688 0 2.8586-2.4211 4.8233-5.3802 8.1348-12.2519 20.4586-20.3682 34.0239-22.4077 22.4279-3.372 45.669 8.7511 55.1716 28.7785 4.1804 8.8107 4.8501 22.3607 1.7184 34.7748-8.5246 33.7933-44.3667 70.059-102.2246 103.4331-13.8597 7.9947-31.913 17.3188-33.5326 17.3188-.6139 0-.7515-4.1185-.3735-11.1732zm-573.01148-32.7204c-.49474-.6487-2.14113-4.7457-3.65864-9.1044-1.51751-4.3587-5.14585-14.009-8.06298-21.4451-39.65415-101.0833-99.8842-198.2412-213.30918-344.0921-8.47418-10.8968-17.95756-23.1557-21.07418-27.242-3.11662-4.0863-8.47087-11.0501-11.89833-15.4753-99.27234-128.16806-148.10997-198.18422-187.65688-269.03457-32.52022-58.26167-52.17057-118.10434-60.43638-184.05138-2.78338-22.20666-2.53408-68.74866.47117-87.96358 4.01115-25.64635 10.93385-48.44036 20.97068-69.04903 7.16935-14.72083 13.32143-23.93965 23.12245-34.64868 45.90926-50.16251 122.27418-51.82551 219.59224-4.78208 67.92265 32.83373 110.23047 67.66358 144.16061 118.68003 20.71295 31.14343 32.45569 57.1184 52.04748 115.12917 9.97567 29.53771 13.70698 38.95657 21.3889 53.99146 14.36885 28.12243 31.46161 44.20833 50.43213 47.46142 6.04474 1.03656 8.46721.91495 19.95299-1.00166 31.72788-5.29436 51.2548-15.21516 65.9659-33.51447 16.35354-20.34234 44.76696-72.5247 64.61424-118.66651 33.86226-78.72422 51.61916-112.7338 73.17706-140.15452 32.5517-41.40438 84.451-74.9093 149.6783-96.62852 42.1775-14.04414 77.2767-19.74994 121.3505-19.72694 36.4245.019 56.6575 2.86019 83.9958 11.79494 53.4476 17.46796 86.144 50.76029 98.7703 100.57048 7.5327 29.71675 8.0733 58.63595 1.9074 102.04339-9.2166 64.88379-27.8222 123.31607-63.1455 198.31249-21.2942 45.21056-67.9002 118.37813-114.6543 179.9976-54.368 71.65433-104.9083 128.06676-204.6855 228.46766-39.507 39.7541-80.2939 79.4443-182.08393 177.188-52.61627 50.5248-109.08287 108.5698-128.93385 132.5381-9.25323 11.1725-10.55366 12.3003-11.9985 10.4061zm914.50198-185.1864c4.307-21.4269 2.6753-51.7263-3.8543-71.5719-2.7799-8.4488-11.9637-26.4248-17.0714-33.4148-2.6799-3.6675-14.6486-17.4685-26.5971-30.669-11.9485-13.2004-24.622-27.2047-28.1635-31.1204-20.31-22.4564-32.1891-58.6508-28.8245-87.8248 2.7693-24.01113 11.5238-42.16705 27.6825-57.41037 12.1049-11.41911 24.0557-17.98526 40.1777-22.07497 35.9794-9.12692 74.3847 1.33005 97.1084 26.44064 5.0901 5.62473 12.4483 18.10984 12.4483 21.12182 0 .67734.6305 1.75483 1.4012 2.39443 1.5691 1.30222 1.3143 1.59573 9.4775-10.91853 6.2901-9.64298 16.4458-20.59995 24.2652-26.17978 30.6828-21.89482 74.768-21.5775 108.0001.77737 8.0329 5.40368 11.8398 8.77288 18.627 16.48522 7.9734 9.06016 13.3565 18.59655 17.3875 30.80277 3.2463 9.8299 3.4335 11.1363 3.4068 23.7748-.0247 11.659-.4219 14.9094-3.0982 25.3555-4.1122 16.0511-7.2474 24.5508-13.85 37.5486-26.4827 52.1341-87.7884 106.4932-179.0772 158.7858-14.2783 8.179-57.8978 30.9171-59.3096 30.9171-.431 0-.4923-1.4487-.1364-3.2195zM78.352163 1175.1992c.420024-12.9693.200311-16.3118-1.552813-23.623-4.607105-19.2133-9.649723-26.8162-37.715243-56.8645-14.795459-15.8407-20.935355-25.5145-24.942889-39.2991-4.4805541-15.4116-4.6443112-23.9141-.702659-36.483 6.56935-20.94793 22.765954-35.61299 44.438674-40.2365 24.805024-5.29174 52.645977 6.0052 63.562407 25.7915 1.77899 3.2245 3.6803 6.0094 4.22514 6.1888.54484.1794 2.77372-2.6132 4.95308-6.2058 2.17935-3.5925 6.74528-9.14523 10.1465-12.33936 27.58429-25.90461 75.69253-16.38477 92.88836 18.38116 4.58348 9.2667 6.0186 18.7888 4.55353 30.2128-3.60535 28.1129-20.94082 54.5291-55.08575 83.9407-20.23468 17.4297-39.6416 30.8867-66.71139 46.2587-15.02399 8.5315-36.109275 19.3845-37.660584 19.3845-.503078 0-.674284-6.5252-.396363-15.1069zM1652.7037 355.217c-3.4395-8.94676-16.5167-33.4148-23.7698-44.47466-13.7331-20.94071-26.9578-36.49525-44.5498-52.39826-47.5025-42.94169-108.6375-69.63717-181.1515-79.10232-15.8169-2.06458-78.0115-2.96243-96.7218-1.39631-61.5343 5.15064-120.5243 20.59959-178.0584 46.63189-7.1641 3.24154-13.1923 5.72706-13.396 5.52339-.7385-.73849 8.4697-7.56789 17.6193-13.06764 41.8429-25.1514 82.5472-38.8189 134.6739-45.22012 23.0205-2.82695 72.2379-3.01595 96.585-.37091 80.0441 8.6959 134.2557 22.32751 180.0214 45.2667 24.8031 12.4321 42.0201 24.45506 58.7592 41.03258 20.7372 20.53691 33.3998 39.66787 43.2999 65.41832 4.3061 11.20025 8.9254 29.24775 8.4124 32.86699l-.3909 2.7575-1.3329-3.46715zM709.02139 183.0975c.10144-12.76582-.17721-15.5457-2.2059-22.00629-4.75264-15.13525-8.79705-21.10368-29.6735-43.78977-20.99196-22.811639-26.2657-33.628358-26.24054-53.8208.01466-11.766804 1.6236-18.132787 6.82696-27.011642 5.09798-8.699031 17.66639-18.56014 26.81089-21.035671 2.63223-.712581 5.31178-1.700795 5.95455-2.196033.64277-.495237 5.32343-.931395 10.40147-.96924 18.59336-.138567 36.52189 9.393197 44.62115 23.722997 1.61671 2.860403 3.45415 5.196834 4.08319 5.192069.62904-.004766 2.8688-2.686157 4.97725-5.958648 9.57222-14.856893 24.73919-23.066971 42.43827-22.972382 4.74562.025361 9.20339.402936 9.90616.839055.70276.436118 4.00266 1.74629 7.3331 2.911492 15.43136 5.398869 27.36733 17.690165 31.64241 32.584396 3.32952 11.599907.53459 30.174222-6.69867 44.517595-14.74785 29.244622-48.43009 59.754942-96.2978 87.229202-8.77481 5.03641-32.64691 17.37525-33.6161 17.37525-.20845 0-.32675-6.57521-.26289-14.61158z"/>
  <path fill="#fe0000" d="M287.98694 1608.0984c5.1238-42.1341 1.89826-66.5484-12.72778-96.3374-6.86541-13.9829-14.71579-25.1183-26.9133-38.1752-53.72814-57.5141-59.73579-65.0797-69.19618-87.1416-11.31611-26.3896-13.59096-59.7524-5.7657-84.5596 4.88772-15.4947 12.05814-27.4858 23.49992-39.2987 22.68091-23.4166 51.37943-33.7882 87.37047-31.5756 22.40584 1.3775 45.07577 10.5195 62.01812 25.0096 7.64385 6.5376 15.61503 17.2211 20.31362 27.2257 2.56302 5.4574 4.82592 9.0701 5.53428 8.8353.65908-.2184 3.42723-4.0322 6.15142-8.4751 13.2892-21.6733 28.94915-36.414 47.55146-44.7604 3.4792-1.561 10.98763-4.0054 16.68539-5.432 8.8294-2.2109 12.49798-2.5927 24.83685-2.5849 7.96251.0049 16.14183.2988 18.17628.653 7.25513 1.2629 21.42514 5.5409 27.54556 8.316 20.87401 9.4647 42.46635 29.8772 51.90238 49.0662 5.98929 12.1798 8.02976 20.7149 8.64616 36.1662 1.51406 37.9539-13.99299 76.8975-46.95359 117.9168-10.72101 13.3422-35.49122 38.6575-50.77192 51.8893-31.36621 27.1604-75.18295 57.5239-121.38086 84.1126-18.38014 10.5786-64.1621 34.3505-66.15494 34.3505-.62635 0-.76373-1.9436-.36764-5.2007zm520.08541-38.8817c-30.83223-30.9376-70.50325-96.157-93.99977-154.5361-30.42237-75.5868-58.69058-129.2076-101.05356-191.6841-14.96538-22.0709-13.94022-21.501 6.78037 3.769 70.00577 85.3759 117.71702 156.6675 155.2623 231.9975 17.2263 34.5625 28.21461 60.0556 38.98316 90.4419 5.81611 16.4116 6.16842 18.5293 4.15335 24.9649l-1.2407 3.9624-8.88515-8.9155zm31.53658-51.5263c-1.42701-5.3354-1.48098-6.4247-.31832-6.4247.48276 0 1.61565 1.555 2.51755 3.4556 1.24853 2.6311 1.38534 3.9312.57333 5.4484-.58656 1.096-1.18123 1.9927-1.32148 1.9927-.14025 0-.79323-2.0124-1.45108-4.472zm554.95557-27.9706c.091-15.643-.9437-20.9268-6.3527-32.4427-4.6634-9.9284-8.086-14.4233-25.1187-32.9874-18.9544-20.6585-23.214-27.885-26.0194-44.142-5.1723-29.9718 12.6155-55.0795 41.9577-59.2238 21.1987-2.9942 43.602 7.2955 51.2964 23.5599 1.382 2.9213 2.9496 5.3115 3.4837 5.3115.534 0 2.1926-1.8803 3.6857-4.1783 4.7411-7.297 16.1313-17.9743 22.2255-20.8343 24.3749-11.4394 56.0927-.2353 67.5006 23.8441 2.7867 5.8821 3.1711 7.7718 3.4626 17.0183.4077 12.9408-1.3266 20.9606-7.1665 33.1397-13.8322 28.8471-46.1436 58.4278-94.6995 86.6963-10.8109 6.294-32.7837 17.8596-33.9303 17.8596-.2223 0-.3686-6.1294-.3251-13.6209zm-574.90216-37.4329c-1.12883-3.017-2.05241-5.695-2.05241-5.9509 0-.2558-3.31212-8.8208-7.36028-19.0332-28.71517-72.4403-69.14121-144.7541-127.22875-227.5858-18.68822-26.6491-56.87792-77.984-85.48639-114.9114-89.02705-114.91525-121.70525-158.54867-154.68577-206.54345-30.74264-44.73814-62.33446-96.5708-78.28282-128.43852-23.87817-47.71292-41.11516-105.46081-47.70738-159.83068-2.27683-18.77822-3.04489-53.9109-1.53858-70.37683 3.75976-41.09896 15.10409-76.65807 33.48145-104.94845 6.4719-9.96294 22.71183-26.51247 31.94694-32.55599 13.62651-8.91726 27.29132-14.41259 45.07302-18.12617 11.77263-2.45864 36.90792-2.93674 52.00733-.98925 30.73528 3.96418 68.2825 16.38654 105.13586 34.78381 69.09584 34.49275 109.72108 69.45411 143.97011 123.89812 16.63329 26.44112 31.90079 62.05375 49.03519 114.37839 12.73585 38.89246 25.33451 62.74159 41.60294 78.75396 12.42185 12.22634 25.41496 17.66027 39.40768 16.48097 9.92972-.83689 25.78924-4.1915 36.41156-7.70179 23.20081-7.66704 38.04525-20.62875 54.8674-47.9085 18.50366-30.0066 35.35648-63.14389 54.41066-106.98651 7.1038-16.34516 14.6742-33.73055 16.8231-38.6342 5.6903-12.98454 22.2825-45.90346 29.2091-57.95084 28.1916-49.03352 59.3461-78.18447 114.6326-107.26052 76.3632-40.1606 174.6627-54.60692 247.0584-36.30824 48.9612 12.37541 83.1158 37.29196 101.0667 73.73034 11.8309 24.01551 16.7338 47.9975 16.708 81.72581-.0412 54.09471-16.561 127.37076-44.1076 195.64662-21.7992 54.03092-43.4986 94.35015-83.4361 155.03138-79.9461 121.47075-170.1688 222.08544-377.9714 421.50704-79.58011 76.3704-95.64065 91.9849-121.14056 117.7757-32.08257 32.4486-56.88633 58.8418-68.6969 73.0988-4.82158 5.8204-9.2917 10.6125-9.9336 10.6491-.6419.0367-2.09067-2.4018-3.2195-5.4188zm916.58426-177.8718c7.3005-40.1074-1.7302-80.3273-24.446-108.8744-2.3845-2.9966-16.0669-18.3706-30.4052-34.1646-25.7223-28.3334-31.2699-35.4185-37.618-48.0435-15.817-31.4565-16.9569-67.0696-3.0445-95.11048 11.2744-22.72356 32.1613-39.5467 57.2546-46.11498 35.7037-9.34558 74.6016.96926 97.0023 25.72277 4.9401 5.45907 12.0225 17.62443 13.4595 23.11926 1.0732 4.1042 3.3544 2.28492 9.2613-7.38601 6.696-10.96333 20.1911-25.31212 29.6117-31.4852 12.1982-7.99309 25.6597-12.16016 42.134-13.04276 34.7292-1.86062 64.7965 11.9863 85.2858 39.27676 6.9582 9.26799 13.7489 25.29534 13.7909 32.54934.0104 1.7858.2785 2.2046.8423 1.3157 1.2628-1.9916 2.2456 11.6798 1.4904 20.7343-.3601 4.3195-.8979 7.6108-1.1948 7.3138-.297-.297-1.372 3.5941-2.3889 8.647-9.1843 45.6345-42.2518 90.2387-102.2835 137.9687-33.1403 26.3491-76.0841 53.2841-125.2044 78.5298l-24.1616 12.4181.6141-3.3736zM79.338939 1175.6284c.610634-15.4251-.72142-23.904-5.748103-36.5886-5.030169-12.6934-8.714122-17.5554-34.472697-45.4967-15.172507-16.4582-20.657343-25.3763-24.411269-39.6918-1.178336-4.4935-2.438483-7.874-2.800326-7.5122-.361844.3619-.657898-4.3462-.657898-10.4624 0-7.1613.352677-10.9024.990616-10.5081.544839.3367.990616-.3197.990616-1.4587 0-4.0696 4.209936-14.4936 8.26153-20.4558 5.624203-8.27643 13.436734-14.85363 22.918388-19.29447 28.466491-13.33263 65.052884-2.71832 77.363924 22.44457 1.4507 2.9651 3.22127 5.3911 3.93461 5.3911.71333 0 2.69953-2.4515 4.41378-5.4476 6.56721-11.47833 17.36299-20.79311 29.22361-25.21468 7.45748-2.7801 22.17031-3.76022 31.65408-2.10869 17.71535 3.08499 35.10035 16.51454 42.6083 32.91407 8.63511 18.8617 4.19603 44.3888-12.1197 69.6953-18.47027 28.6482-58.78537 62.3737-106.22509 88.8625-12.26723 6.8496-35.053802 18.6193-36.047688 18.6193-.230183 0-.174691-6.1592.123317-13.6871zM1645.7211 335.65045c-15.5543-30.53415-37.8556-59.49922-62.1916-80.77524-32.4414-28.36224-66.6577-47.72975-109.378-61.91144-5.8511-1.94235-10.4588-3.71104-10.2394-3.93043.5847-.58464 18.0223 4.20426 32.2697 8.86226 45.875 14.99817 81.586 35.47771 107.5123 61.65611 19.2533 19.44047 31.2039 37.61759 41.0843 62.49016 2.9393 7.39933 8.1994 25.30174 7.6079 25.89321-.1484.14838-3.1477-5.3797-6.6652-12.28463zm-519.1528-113.53416c3.019-3.63764 31.7459-19.08664 47.9275-25.77488 31.6794-13.09381 61.7032-20.47641 99.2928-24.41529 17.9116-1.87689 24.658-2.11441 48.5401-1.70894 17.7401.30118 33.6285 1.14518 44.0824 2.34167l16.3452 1.87076-40.1199.57531c-29.2547.4195-43.7418 1.03883-53.4933 2.28687-58.9046 7.53883-104.8171 20.35415-159.9394 44.64303-3.3245 1.4649-3.7233 1.49236-2.6354.18147zm-416.71728-33.5704c1.6398-16.48823-2.40153-33.65753-11.01855-46.81156-2.14329-3.27177-8.50256-11.00731-14.1317-17.19011-19.00769-20.87715-22.35717-24.935529-25.59757-31.015135-11.14022-20.901201-10.05451-46.531459 2.60862-61.580717 6.63816-7.889017 18.76607-15.413501 27.47747-17.047769 1.97215-.369976 3.34042-1.069581 3.04061-1.554679-.30493-.493385 3.87109-.881995 9.47798-.881995 5.5127 0 9.78199.390099 9.48732.866886-.29467.476788 1.17886 1.141065 3.2745 1.476173 2.09564.335107 7.37084 2.391411 11.72267 4.569566 8.82948 4.419299 15.72113 10.955183 19.28389 18.288414 1.23699 2.546105 2.88149 4.517436 3.76847 4.517436.86556 0 3.45725-2.864823 5.75932-6.366275 2.30207-3.50145 6.29717-8.241999 8.87799-10.534551 4.99682-4.438691 14.49479-9.453778 19.79063-10.449785 1.76596-.33213 2.96554-1.000771 2.66573-1.485869-.30507-.493619 3.9154-.881995 9.58462-.881995 5.57136 0 9.84516.28457 9.49735.632377-.34781.347808 2.89507 1.81592 7.2064 3.262471 13.82262 4.637817 23.87734 13.252029 30.01116 25.711588 3.09512 6.287095 3.20455 6.932945 3.20455 18.91291 0 11.043441-.31194 13.326834-2.84479 20.823762C830.81981 117.8521 790.06905 154.74828 723.3946 190.09692c-6.86924 3.64185-12.90956 6.62155-13.42294 6.62155-.57441 0-.62081-3.14337-.12064-8.17258z"/>
</svg>